<svg enable-background="new 0 0 487.821 487.821" viewBox="0 0 487.8 487.8" xmlns="http://www.w3.org/2000/svg"><path d="m427.8 52.5h-270.2l.7 225.2h-.7v150.1h52.5v-135.1h120.1l37.5-37.5h30.1v180.1h52.5v-345.2z" fill="#afddf3"/><path d="m112.6 277.7h45v150.1h-45zm285.2 150.1h-45.1l5.7-168.7 39.4-3.9z" fill="#5ebae7"/><path d="m232.7 52.5h-180.2l-45 46.8.1 187.1h-.1v118.8l30 7.6v-135.1h127.6l67.6-75.1z" fill="#afddf3"/><path d="m232.7 202.6-67.6 75.1h-82.5l67.5-75.1v-150.1h82.6z" fill="#5ebae7"/><g fill="#1d1d1b"><path d="m168.4 285.2h-55.8v-15h49.2l63.4-70.4v-139.8h-90.1v-15h105.1v160.5zm319.4-30h-15v-162c0-18.3-14.8-33.2-33-33.2h-192.2v-15h192c26.6 0 48.1 21.6 48.1 48.1v162zm-345.2 180.1h-37.5v-142.6h15v127.6h22.5zm240.2 0h-37.6v-165.1h15v150.1h22.6z"/><path d="m457.8 442.8h-67.5v-180.1h-19.4l-37.6 37.5h-115.7v142.6h-67.5v-150.1h15v135.1h37.5v-142.6h124.5l37.5-37.5h40.7v180.1h37.5v-335.5l-13.7-20.6 12.4-8.3 16.3 24.4zm-315.2-322.8v79.8l-63.4 70.4h-49.2v127.6c0 2.4.4 4.8 1.1 7l-8.4-.2h-.2a7.5 7.5 0 0 1 -7.5-7.6v-281.4c0-30.7 25-55.6 55.5-55.6h49.6v-15h-49.6a70.6 70.6 0 0 0 -70.5 70.6v282.2c.4 12 10.3 21.7 22.4 21.8l30 .7h.1a22.5 22.5 0 0 0 22.5-22.5h-15c0 4.1-3.3 7.5-7.4 7.5h-.1a7.5 7.5 0 0 1 -7.5-7.5v-112.6h41l71.7-79.7v-70.4h15v-15h-30z"/><path d="m60 120.1h37.5v15h-37.5zm7.5 15h15v15h-15zm187.7-60h75.1v15h-75.1z"/></g></svg>